<svg width="428" height="288" viewBox="0 0 428 288" fill="none" xmlns="http://www.w3.org/2000/svg">
<g filter="url(#filter0_d)">
<path d="M4.18047 75.2835C2.82083 66.4103 8.91175 58.115 17.7849 56.7553L370.266 2.74445C379.139 1.38481 387.435 7.47572 388.794 16.3489L417.667 204.775C419.027 213.649 412.936 221.944 404.063 223.304L51.5813 277.314C42.7081 278.674 34.4128 272.583 33.0532 263.71L4.18047 75.2835Z" fill="white"/>
</g>
<path fill-rule="evenodd" clip-rule="evenodd" d="M371.321 9.63L18.84 63.6409C13.7696 64.4178 10.2891 69.158 11.066 74.2284L39.9387 262.655C40.7156 267.725 45.4558 271.206 50.5262 270.429L403.008 216.418C408.078 215.641 411.559 210.901 410.782 205.831L381.909 17.404C381.132 12.3336 376.392 8.85306 371.321 9.63ZM17.7849 56.7553C8.91175 58.115 2.82083 66.4103 4.18047 75.2835L33.0532 263.71C34.4128 272.583 42.7081 278.674 51.5813 277.314L404.063 223.304C412.936 221.944 419.027 213.649 417.667 204.775L388.794 16.3489C387.435 7.47572 379.139 1.38481 370.266 2.74445L17.7849 56.7553Z" fill="#FF0000"/>
<path d="M100.346 198.887L79.46 202.088L77.5763 189.795C77.3081 188.044 76.1794 187.321 74.1902 187.626L70.013 188.266C68.0239 188.571 67.1634 189.599 67.4316 191.349L74.1616 235.27C74.4298 237.02 75.5585 237.743 77.5477 237.438L81.7249 236.798C83.7141 236.493 84.5745 235.466 84.3063 233.715L82.4958 221.9L103.382 218.699L105.43 232.066C106.942 241.933 101.85 247.762 90.1535 249.554L73.3253 252.133C61.629 253.925 55.025 249.888 53.5132 240.022L46.3077 192.998C44.7959 183.132 49.8881 177.302 61.5844 175.51L78.4127 172.932C90.1089 171.139 96.7129 175.176 98.2247 185.043L100.346 198.887Z" fill="black"/>
<path d="M134.07 227.556L157.82 223.916L160.106 238.835L115.47 245.675L103.729 169.052L124.615 165.852L134.07 227.556Z" fill="black"/>
<path d="M170.333 158.847L187.997 156.14C199.693 154.348 206.297 158.385 207.809 168.251L215.015 215.275C216.526 225.141 211.434 230.97 199.738 232.762L182.074 235.469C170.378 237.261 163.774 233.224 162.262 223.358L155.057 176.334C153.545 166.468 158.637 160.639 170.333 158.847ZM193.708 215.73L187.344 174.196C187.075 172.446 185.947 171.723 183.957 172.028L178.945 172.796C176.956 173.101 176.095 174.128 176.363 175.879L182.728 217.413C182.996 219.163 184.125 219.886 186.114 219.581L191.126 218.813C193.115 218.508 193.976 217.481 193.708 215.73Z" fill="black"/>
<path d="M253.099 206.63L251.435 195.769C251.167 194.018 250.038 193.295 248.049 193.6L236.591 195.356C230.703 196.258 226.331 195.625 223.474 193.457C220.685 191.197 218.918 187.64 218.175 182.787L215.761 167.033C214.249 157.166 219.301 151.343 230.918 149.563L247.269 147.058C258.886 145.278 265.45 149.321 266.962 159.187L268.37 168.377L247.484 171.577L246.496 165.132C246.228 163.382 245.099 162.659 243.11 162.964L239.649 163.494C237.66 163.799 236.799 164.827 237.068 166.577L238.805 177.915C239.073 179.666 240.202 180.389 242.191 180.084L253.41 178.365C259.298 177.463 263.664 178.056 266.508 180.144C269.433 182.221 271.26 185.646 271.992 190.42L274.406 206.174C275.918 216.04 270.865 221.864 259.249 223.644L243.017 226.131C231.321 227.923 224.717 223.886 223.205 214.02L221.797 204.83L242.683 201.629L243.67 208.074C243.939 209.825 245.067 210.548 247.057 210.243L250.518 209.712C252.507 209.408 253.367 208.38 253.099 206.63Z" fill="black"/>
<path d="M303.653 201.57L329.791 197.565L332.077 212.484L285.053 219.689L273.312 143.067L319.262 136.026L321.548 150.945L296.484 154.785L298.88 170.42L320.482 167.11L322.768 182.029L301.166 185.339L303.653 201.57Z" fill="black"/>
<path d="M328.12 134.669L363.328 129.274C375.024 127.482 381.628 131.519 383.14 141.385L390.346 188.409C391.857 198.275 386.765 204.104 375.069 205.896L339.861 211.291L328.12 134.669ZM369.222 190.058L362.492 146.137C362.223 144.386 361.095 143.664 359.106 143.968L351.109 145.194L358.644 194.366L366.64 193.14C368.629 192.836 369.49 191.808 369.222 190.058Z" fill="black"/>
<path d="M244.285 70.3338L254.751 68.7301L253.437 128.222L240.033 130.276L227.255 90.4205L227.088 132.259L213.684 134.313L194.617 77.9444L205.542 76.2704L218.712 122.361L219.13 74.1884L230.238 72.4862L244.969 118.338L244.285 70.3338Z" fill="black"/>
<path d="M271.116 79.3773L280.848 77.8861C287.458 76.8732 291.227 79.3964 292.156 85.4557L294.674 101.889L275.119 104.886L276.54 114.158C276.69 115.137 276.946 115.787 277.308 116.108C277.722 116.357 278.45 116.403 279.49 116.243L283.713 115.596C284.692 115.446 285.342 115.19 285.663 114.827C285.974 114.404 286.054 113.703 285.904 112.723L285.383 109.326L295.482 107.779L296.186 112.369C297.114 118.429 294.243 121.969 287.571 122.992L278.023 124.455C271.352 125.477 267.552 122.958 266.624 116.899L262.502 89.9996C261.573 83.9403 264.445 80.3995 271.116 79.3773ZM274.092 98.1837L283.64 96.7207L282.317 88.0908C282.167 87.1115 281.885 86.497 281.471 86.2472C281.048 85.9363 280.346 85.8558 279.367 86.0059L274.96 86.6811C273.981 86.8312 273.336 87.118 273.025 87.5415C272.705 87.9037 272.619 88.5745 272.769 89.5538L274.092 98.1837Z" fill="black"/>
<path d="M294.724 62.605L306.017 60.8746L307.029 67.4848L301.926 87.5292L298.621 88.0356L294.724 62.605Z" fill="black"/>
<path d="M333.426 69.6416L335.078 69.3884L336.457 78.3855L332.601 78.9763C328.745 79.5672 327.155 82.066 327.83 86.4727L332.374 116.126L322 117.716L315.093 72.6387L325.375 71.0632L326.261 76.847C326.479 74.9971 327.207 73.4134 328.446 72.096C329.685 70.7786 331.345 69.9605 333.426 69.6416Z" fill="black"/>
<path d="M349.027 67.439L358.758 65.9478C365.369 64.9349 369.138 67.4581 370.066 73.5174L372.584 89.9509L353.029 92.9473L354.45 102.22C354.6 103.199 354.857 103.849 355.219 104.169C355.633 104.419 356.36 104.464 357.401 104.305L361.624 103.658C362.603 103.508 363.253 103.251 363.573 102.889C363.884 102.466 363.965 101.764 363.815 100.785L363.294 97.3881L373.393 95.8407L374.096 100.431C375.025 106.49 372.153 110.031 365.482 111.053L355.934 112.516C349.263 113.539 345.463 111.02 344.534 104.961L340.413 78.0613C339.484 72.002 342.356 68.4612 349.027 67.439ZM352.003 86.2454L361.55 84.7824L360.228 76.1525C360.078 75.1732 359.796 74.5587 359.382 74.3089C358.958 73.998 358.257 73.9175 357.278 74.0676L352.871 74.7428C351.892 74.8929 351.247 75.1797 350.936 75.6032C350.615 75.9655 350.53 76.6362 350.68 77.6155L352.003 86.2454Z" fill="black"/>
<path d="M76.4083 88.2572C76.5555 88.0206 76.6994 87.6621 76.8399 87.1817C76.9758 86.6715 77.0877 86.1038 77.1754 85.4786C77.2585 84.8236 77.29 84.1306 77.2697 83.3996C77.2748 82.6341 77.2201 81.8778 77.1056 81.1307C76.8766 79.6364 76.4106 78.5914 75.7076 77.9957C75.0299 77.3654 74.3324 77.1052 73.6152 77.2152C73.2267 77.2747 72.8415 77.456 72.4598 77.7592C72.078 78.0624 71.7617 78.4932 71.5108 79.0517C71.2553 79.5802 71.0653 80.2363 70.9407 81.0201C70.846 81.7993 70.8788 82.7119 71.039 83.7579C71.1215 84.2958 71.3875 85.2338 71.8373 86.5719C72.3169 87.9054 72.8929 89.4688 73.5653 91.2622C74.2378 93.0555 74.9503 95.011 75.703 97.1285C76.481 99.2115 77.2291 101.299 77.9473 103.391C78.6655 105.484 79.2953 107.498 79.8366 109.433C80.4032 111.335 80.7965 113.003 81.0163 114.437C81.2361 115.872 81.2133 117.42 80.948 119.081C80.7079 120.709 80.3162 122.344 79.7727 123.987C79.2246 125.601 78.5904 127.151 77.8701 128.637C77.1497 130.124 76.4363 131.457 75.7299 132.636C75.0189 133.785 74.3656 134.711 73.7698 135.414C73.174 136.117 72.7267 136.491 72.4279 136.537C71.9198 136.615 71.4371 136.658 70.9796 136.667C70.5521 136.671 70.0682 136.608 69.5281 136.476C68.4894 136.085 67.3979 135.549 66.2535 134.868C65.1391 134.182 64.0581 133.415 63.0104 132.566C61.9328 131.722 60.9426 130.849 60.0398 129.947C59.1025 129.02 58.3215 128.115 57.6968 127.232C58.2376 126.171 58.8129 125.134 59.4227 124.123C59.9312 123.25 60.5099 122.336 61.1586 121.38C61.7776 120.428 62.4102 119.567 63.0566 118.795L63.1462 118.781C63.7731 119.878 64.5378 121.076 65.4404 122.375C66.343 123.675 67.2767 124.877 68.2415 125.984C69.2361 127.085 70.2159 127.99 71.181 128.699C72.1414 129.378 72.9952 129.66 73.7423 129.545C73.8917 129.522 74.109 129.443 74.3941 129.308C74.7091 129.168 74.9931 128.925 75.2462 128.581C75.4947 128.206 75.6754 127.689 75.7885 127.029C75.9268 126.335 75.909 125.42 75.7349 124.285C75.6159 123.508 75.2672 122.231 74.6891 120.453C74.1408 118.672 73.4639 116.65 72.6584 114.387C71.8529 112.125 70.9993 109.748 70.0974 107.255C69.2254 104.758 68.3913 102.409 67.595 100.206C66.7987 98.0035 66.1206 96.0734 65.5607 94.4157C65.0261 92.7236 64.7108 91.5637 64.6146 90.9361C64.4131 89.6212 64.4874 88.3098 64.8376 87.0021C65.2131 85.6599 65.6943 84.4086 66.2811 83.2481C66.8933 82.0532 67.541 80.9905 68.2243 80.0599C68.9075 79.1294 69.4539 78.4033 69.8634 77.8818C70.489 77.1742 71.1825 76.4103 71.9439 75.5902C72.7351 74.7654 73.5183 73.9878 74.2933 73.2573C75.0983 72.5222 75.8595 71.9009 76.577 71.3933C77.2899 70.8558 77.9004 70.5482 78.4085 70.4703C78.9165 70.3925 79.398 70.4411 79.8531 70.616C80.3035 70.7611 80.7217 71.0947 81.1075 71.6167C81.5187 72.1043 81.8746 72.8297 82.1751 73.793C82.5009 74.7219 82.7806 75.9484 83.0142 77.4725C83.1195 78.1599 83.103 78.8506 82.9647 79.5447C82.8516 80.2044 82.6639 80.8754 82.4014 81.558C82.1344 82.2106 81.8202 82.8552 81.459 83.4917C81.0931 84.0984 80.7078 84.6774 80.3029 85.2288C79.3412 86.5385 78.2314 87.7791 76.9733 88.9506L76.4083 88.2572Z" fill="black"/>
<path d="M86.4223 109.296C86.874 107.453 87.5175 105.764 88.3528 104.229C89.1836 102.664 90.1532 101.307 91.2619 100.158C92.3659 98.9797 93.5814 98.0288 94.9081 97.3055C96.2349 96.5822 97.6155 96.1107 99.05 95.8909C99.6776 95.7947 100.392 95.8687 101.194 96.1129C102.022 96.3225 102.81 96.6758 103.559 97.1728C104.308 97.6698 104.958 98.3195 105.51 99.1221C106.086 99.8902 106.452 100.782 106.608 101.798C106.741 102.665 106.789 103.682 106.754 104.85C106.715 105.988 106.622 107.18 106.476 108.425C106.326 109.641 106.146 110.862 105.936 112.087C105.726 113.312 105.518 114.445 105.31 115.486C105.098 116.497 104.895 117.37 104.702 118.103C104.538 118.831 104.415 119.324 104.332 119.582C103.885 121.455 103.244 123.159 102.408 124.694C101.573 126.229 100.603 127.586 99.4991 128.764C98.3905 129.913 97.1728 130.849 95.846 131.572C94.5492 132.291 93.1835 132.76 91.749 132.98C91.1214 133.076 90.4089 133.017 89.6114 132.803C88.784 132.593 87.9957 132.24 87.2467 131.743C86.493 131.216 85.8429 130.566 85.2963 129.793C84.7198 129.025 84.3537 128.133 84.198 127.117C84.0606 126.221 84.0118 125.203 84.0516 124.066C84.0868 122.898 84.1794 121.706 84.3296 120.49C84.4751 119.244 84.6529 118.009 84.8628 116.784C85.0727 115.559 85.2837 114.441 85.4958 113.429C85.7079 112.418 85.8957 111.548 86.0594 110.82C86.2184 110.061 86.3394 109.553 86.4223 109.296ZM97.5002 98.6518C96.8128 98.7571 96.1596 99.4842 95.5404 100.833C94.9466 102.148 94.3905 103.808 93.8721 105.814C93.3835 107.816 92.9374 109.995 92.5338 112.351C92.1554 114.672 91.8403 116.908 91.5884 119.057C91.3665 121.201 91.1975 123.093 91.0816 124.732C90.991 126.336 90.9869 127.407 91.0693 127.945C91.2021 128.812 91.4627 129.414 91.8509 129.753C92.2392 130.091 92.7172 130.216 93.2851 130.129C93.7931 130.051 94.2784 129.625 94.7409 128.851C95.1988 128.047 95.6373 127.016 96.0564 125.759C96.4755 124.502 96.8522 123.068 97.1865 121.457C97.5506 119.841 97.8781 118.185 98.1687 116.489C98.4548 114.762 98.6983 113.058 98.8993 111.376C99.1302 109.689 99.3047 108.133 99.4228 106.707C99.5707 105.278 99.6588 104.056 99.687 103.042C99.7405 101.994 99.7375 101.276 99.678 100.887C99.5452 100.021 99.2846 99.4183 98.8964 99.0802C98.5035 98.7122 98.0381 98.5694 97.5002 98.6518Z" fill="black"/>
<path d="M115.098 128.76C114.778 128.87 114.426 128.97 114.043 129.059C113.369 129.254 112.479 129.436 111.373 129.606C110.865 129.684 110.323 129.736 109.746 129.763C109.174 129.82 108.597 129.848 108.015 129.845L107.677 129.438C107.781 129.116 107.956 128.462 108.203 127.476C108.419 126.495 108.681 125.308 108.987 123.915C109.264 122.527 109.563 120.982 109.883 119.282C110.204 117.581 110.535 115.848 110.876 114.083C111.187 112.322 111.488 110.594 111.779 108.897C112.04 107.206 112.276 105.655 112.489 104.247C112.701 102.838 112.856 101.652 112.953 100.688C113.045 99.6955 113.066 99.0347 113.016 98.7059C112.966 98.3772 112.897 98.1278 112.81 97.9576C112.722 97.7875 112.637 97.6322 112.555 97.492C112.447 97.3862 112.339 97.2804 112.231 97.1746L112.128 96.5022C112.751 95.9784 113.486 95.4835 114.332 95.0174C115.208 94.5467 116.063 94.1404 116.898 93.7984C117.848 93.4082 118.847 93.041 119.895 92.6968L120.16 92.9314C120.201 93.2004 120.191 93.6302 120.128 94.221C120.096 94.8071 120.03 95.4748 119.931 96.2241C119.827 96.9435 119.713 97.6951 119.588 98.4789C119.463 99.2627 119.332 100.002 119.194 100.696C119.085 101.385 118.978 101.983 118.872 102.488C118.796 102.99 118.754 103.317 118.747 103.471C118.36 105.335 118.001 107.286 117.671 109.325C117.341 111.364 117.026 113.4 116.726 115.434C117.153 113.626 117.607 111.797 118.088 109.949C118.595 108.067 119.113 106.26 119.643 104.527C120.168 102.764 120.724 101.103 121.311 99.5453C121.924 97.9528 122.538 96.5739 123.155 95.4089C123.767 94.214 124.399 93.2455 125.05 92.5034C125.731 91.7567 126.415 91.3307 127.102 91.2254C127.311 91.1934 127.639 91.2349 128.085 91.3501C128.526 91.4355 128.994 91.5932 129.488 91.8234C129.982 92.0535 130.472 92.3607 130.959 92.7448C131.472 93.0946 131.904 93.5178 132.255 94.0145C132.402 94.1755 132.375 94.6996 132.175 95.5867C131.97 96.444 131.581 97.4977 131.008 98.7478C130.43 99.968 129.669 101.293 128.726 102.722C127.778 104.121 126.622 105.461 125.258 106.74L124.048 106.329C124.375 105.27 124.621 104.376 124.784 103.647C124.973 102.884 125.104 102.237 125.175 101.706C125.242 101.145 125.261 100.668 125.231 100.275C125.232 99.8776 125.204 99.4994 125.149 99.1408C125.081 98.6925 124.912 98.489 124.643 98.5302C124.224 98.5943 123.75 99.0951 123.221 100.033C122.717 100.936 122.184 102.149 121.623 103.673C121.091 105.192 120.536 106.959 119.958 108.975C119.405 110.956 118.84 113.061 118.264 115.29C117.714 117.485 117.157 119.742 116.595 122.061C116.062 124.376 115.563 126.608 115.098 128.76Z" fill="black"/>
<path d="M136.525 125.476C136.206 125.587 135.854 125.686 135.47 125.776C134.797 125.971 133.907 126.153 132.801 126.322C132.293 126.4 131.751 126.453 131.174 126.48C130.601 126.537 130.024 126.564 129.443 126.562L129.105 126.155C129.209 125.833 129.384 125.179 129.63 124.193C129.847 123.212 130.109 122.025 130.415 120.632C130.692 119.244 130.99 117.699 131.311 115.998C131.631 114.297 131.962 112.564 132.304 110.799C132.615 109.039 132.916 107.31 133.207 105.614C133.467 103.922 133.704 102.372 133.916 100.963C134.129 99.5542 134.283 98.3682 134.38 97.4051C134.473 96.4122 134.494 95.7513 134.444 95.4226C134.393 95.0938 134.325 94.8444 134.237 94.6742C134.15 94.5041 134.065 94.3489 133.982 94.2086C133.874 94.1028 133.766 93.997 133.659 93.8912L133.555 93.2188C134.179 92.6951 134.913 92.2001 135.76 91.734C136.636 91.2633 137.491 90.857 138.326 90.515C139.275 90.1248 140.274 89.7576 141.323 89.4134L141.588 89.6481C141.629 89.917 141.619 90.3469 141.556 90.9376C141.524 91.5237 141.458 92.1914 141.358 92.9407C141.255 93.6602 141.14 94.4117 141.016 95.1955C140.891 95.9793 140.76 96.7182 140.621 97.4123C140.513 98.1019 140.406 98.6994 140.3 99.2051C140.223 99.7061 140.182 100.034 140.175 100.188C139.788 102.052 139.429 104.003 139.099 106.042C138.769 108.08 138.454 110.117 138.154 112.151C138.58 110.342 139.034 108.514 139.516 106.666C140.023 104.784 140.541 102.976 141.071 101.243C141.596 99.4805 142.152 97.8201 142.739 96.262C143.351 94.6694 143.966 93.2906 144.583 92.1255C145.195 90.9306 145.826 89.9621 146.477 89.22C147.158 88.4734 147.842 88.0474 148.53 87.942C148.739 87.91 149.066 87.9516 149.512 88.0668C149.954 88.1521 150.421 88.3098 150.915 88.54C151.409 88.7701 151.9 89.0773 152.387 89.4615C152.9 89.8112 153.331 90.2344 153.683 90.7311C153.83 90.8921 153.803 91.4162 153.603 92.3033C153.397 93.1606 153.008 94.2143 152.435 95.4644C151.858 96.6847 151.097 98.0094 150.154 99.4386C149.206 100.838 148.05 102.177 146.686 103.457L145.476 103.046C145.803 101.986 146.048 101.092 146.212 100.364C146.401 99.6007 146.531 98.9537 146.603 98.4227C146.67 97.8619 146.689 97.3849 146.659 96.9919C146.659 96.5942 146.632 96.216 146.577 95.8574C146.508 95.4091 146.339 95.2056 146.07 95.2468C145.652 95.3109 145.178 95.8118 144.649 96.7493C144.145 97.6524 143.612 98.8657 143.05 100.389C142.518 101.908 141.963 103.676 141.385 105.691C140.832 107.672 140.268 109.778 139.692 112.007C139.141 114.202 138.585 116.459 138.022 118.778C137.49 121.092 136.991 123.325 136.525 125.476Z" fill="black"/>
<path d="M170.789 129.907C170.68 130.994 170.293 132.063 169.628 133.113C168.963 134.163 168.165 135.142 167.234 136.049C166.307 136.986 165.306 137.843 164.232 138.619C163.163 139.426 162.15 140.101 161.193 140.645C160.242 141.219 159.423 141.666 158.738 141.985C158.027 142.338 157.582 142.529 157.403 142.556C157.134 142.598 156.771 142.623 156.313 142.632C155.826 142.645 155.434 142.583 155.138 142.445C154.782 142.316 154.34 142.032 153.814 141.592C153.293 141.183 152.757 140.684 152.208 140.095C151.659 139.506 151.148 138.866 150.675 138.173C150.177 137.516 149.82 136.882 149.604 136.273L154.334 130.914C155.122 132.262 155.929 133.438 156.756 134.443C157.098 134.88 157.468 135.297 157.866 135.695C158.268 136.123 158.676 136.489 159.089 136.792C159.503 137.096 159.92 137.323 160.34 137.472C160.761 137.622 161.165 137.667 161.554 137.608C161.853 137.562 162.103 137.401 162.306 137.125C162.538 136.845 162.729 136.495 162.879 136.074C163.063 135.679 163.221 135.211 163.352 134.671C163.488 134.161 163.619 133.621 163.746 133.051C164.133 131.187 164.474 129.315 164.767 127.435C165.064 125.584 165.327 123.709 165.556 121.808C165.815 119.903 166.054 117.97 166.273 116.009C166.523 114.044 166.765 112.034 167.001 109.979C166.237 111.381 165.42 112.836 164.55 114.346C163.706 115.821 162.86 117.189 162.014 118.451C161.192 119.678 160.403 120.716 159.646 121.566C158.89 122.417 158.242 122.883 157.704 122.965C157.495 122.997 157.108 122.965 156.543 122.868C155.977 122.771 155.396 122.57 154.798 122.264C154.166 121.932 153.578 121.487 153.034 120.928C152.489 120.369 152.136 119.659 151.973 118.797C151.927 118.498 152.009 117.736 152.219 116.511C152.399 115.29 152.662 113.812 153.008 112.077C153.319 110.317 153.657 108.43 154.022 106.416C154.381 104.373 154.706 102.396 154.994 100.486C155.308 98.5417 155.525 96.765 155.645 95.156C155.796 93.5425 155.805 92.3024 155.672 91.4357C155.635 91.1966 155.573 90.992 155.486 90.8218C155.399 90.6517 155.316 90.5114 155.238 90.401C155.13 90.2952 155.024 90.2044 154.921 90.1285L154.825 89.5009C155.418 88.9817 156.157 88.5167 157.043 88.1058C157.923 87.665 158.786 87.3034 159.629 87.0212C160.588 86.6908 161.599 86.3983 162.661 86.1438L162.881 86.3853C162.915 88.0013 162.826 89.8194 162.616 91.8398C162.401 93.8303 162.135 95.8898 161.819 98.0181C161.498 100.117 161.145 102.205 160.76 104.282C160.405 106.356 160.072 108.273 159.76 110.033C159.449 111.794 159.212 113.344 159.051 114.684C158.884 115.994 158.847 116.948 158.939 117.546C159.003 117.964 159.154 118.155 159.393 118.118C159.632 118.082 159.974 117.815 160.418 117.319C160.857 116.793 161.353 116.136 161.905 115.348C162.457 114.56 163.028 113.692 163.617 112.746C164.236 111.794 164.815 110.88 165.353 110.002C165.917 109.09 166.417 108.264 166.854 107.524C167.287 106.754 167.613 106.184 167.831 105.814C168.048 104.435 168.279 102.947 168.523 101.349C168.763 99.7222 168.983 98.1592 169.181 96.6606C169.41 95.1574 169.58 93.7703 169.691 92.4992C169.832 91.2235 169.894 90.2352 169.879 89.5341C169.888 89.1962 169.849 88.9421 169.762 88.772C169.67 88.5719 169.568 88.4041 169.455 88.2684C169.313 88.1373 169.175 88.0361 169.042 87.9647L168.946 87.3371C169.569 86.8134 170.323 86.3461 171.208 85.9352C172.089 85.4944 172.951 85.1328 173.795 84.8506C174.754 84.5202 175.764 84.2277 176.826 83.9732L177.047 84.2147C176.943 84.9341 176.766 86.0776 176.517 87.6451C176.263 89.1828 175.969 90.956 175.635 92.9648C175.326 94.9392 174.99 97.0399 174.628 99.2671C174.291 101.46 173.957 103.576 173.627 105.614C173.323 107.618 173.053 109.449 172.817 111.106C172.607 112.729 172.474 113.958 172.418 114.792L170.789 129.907Z" fill="black"/>
<path d="M71.0579 157.925L59.5282 150.616C98.3304 135.5 134.179 135.356 147.253 137.174C101.928 140.298 77.571 152.31 71.0579 157.925Z" fill="black"/>
<defs>
<filter id="filter0_d" x="0.718626" y="0.282593" width="426.41" height="287.494" filterUnits="userSpaceOnUse" color-interpolation-filters="sRGB">
<feFlood flood-opacity="0" result="BackgroundImageFix"/>
<feColorMatrix in="SourceAlpha" type="matrix" values="0 0 0 0 0 0 0 0 0 0 0 0 0 0 0 0 0 0 127 0"/>
<feOffset dx="3" dy="4"/>
<feGaussianBlur stdDeviation="2"/>
<feColorMatrix type="matrix" values="0 0 0 0 0 0 0 0 0 0 0 0 0 0 0 0 0 0 0.25 0"/>
<feBlend mode="normal" in2="BackgroundImageFix" result="effect1_dropShadow"/>
<feBlend mode="normal" in="SourceGraphic" in2="effect1_dropShadow" result="shape"/>
</filter>
</defs>
</svg>
