<svg xmlns="http://www.w3.org/2000/svg" width="41.93" height="61.85" viewBox="0 0 41.93 61.85"><title>Artboard 1</title><path d="M31.53,9.8,22,6.23l9.28-3.06,9.37,3.07Z" style="fill:#ffd520"/><path d="M12.27,2.56,20.6,5.7l9.31-3L21.61,0Z" style="fill:#ffd520"/><path d="M30.22,10.32,20.6,14.06,10.63,10l10-3.31Z" style="fill:#ffd520"/><path d="M10.86,3l8.37,3.19L9,9.41.41,5.82Z" style="fill:#ffd520"/><path d="M32.32,54.06V37.85l-1.43.75V55.05l-9.64,6.8,0-46.92,9.6-3.8V26.06l1.43-.75V10.56l9-3.54L38,29.32l4,18Z" style="fill:#658ab2"/><path d="M19.78,61.59,9.82,55V39.22l-1.68-1V53.85L0,48.47V6.64l8.14,3.44V24.55l1.68.9V10.79l10,4.2Z" style="fill:#004677"/></svg>